<mxfile host="app.diagrams.net" modified="2024-04-26T09:21:30.382Z" agent="Mozilla/5.0 (Windows NT 10.0; Win64; x64) AppleWebKit/537.36 (KHTML, like Gecko) Chrome/124.0.0.0 Safari/537.36 Edg/124.0.0.0" version="24.2.5" etag="gfwEzk4WkI9jq9maHTVG" type="github">
  <diagram name="第 1 页" id="if8XLQDDpq4Y46Zh3Ne9">
    <mxGraphModel>
      <root>
        <mxCell id="0" />
        <mxCell id="1" parent="0" />
      </root>
    </mxGraphModel>
  </diagram>
</mxfile>
